<?xml version="1.0" encoding="UTF-8" standalone="no"?>
<svg
   xmlns:dc="http://purl.org/dc/elements/1.1/"
   xmlns:cc="http://creativecommons.org/ns#"
   xmlns:rdf="http://www.w3.org/1999/02/22-rdf-syntax-ns#"
   xmlns:svg="http://www.w3.org/2000/svg"
   xmlns="http://www.w3.org/2000/svg"
   xmlns:sodipodi="http://sodipodi.sourceforge.net/DTD/sodipodi-0.dtd"
   xmlns:inkscape="http://www.inkscape.org/namespaces/inkscape"
   viewBox="0 0 64 64"
   version="1.1"
   id="svg6"
   sodipodi:docname="passwordedn.svg"
   inkscape:version="0.92.4 (5da689c313, 2019-01-14)">
  <metadata
     id="metadata12">
    <rdf:RDF>
      <cc:Work
         rdf:about="">
        <dc:format>image/svg+xml</dc:format>
        <dc:type
           rdf:resource="http://purl.org/dc/dcmitype/StillImage" />
        <dc:title></dc:title>
      </cc:Work>
    </rdf:RDF>
  </metadata>
  <defs
     id="defs10" />
  <sodipodi:namedview
     pagecolor="#ffffff"
     bordercolor="#666666"
     borderopacity="1"
     objecttolerance="10"
     gridtolerance="10"
     guidetolerance="10"
     inkscape:pageopacity="0"
     inkscape:pageshadow="2"
     inkscape:window-width="1676"
     inkscape:window-height="863"
     id="namedview8"
     showgrid="false"
     inkscape:zoom="7.375"
     inkscape:cx="6.1020071"
     inkscape:cy="39.085665"
     inkscape:window-x="200"
     inkscape:window-y="115"
     inkscape:window-maximized="0"
     inkscape:current-layer="svg6" />
  <path
     d="m 15.504 27.517 c 0.667 -0.685 2.35 -0.493 2.35 -0.493 l 28.29 0 c 0 0 1.683 -0.192 2.35 0.493 0.667 0.685 0.48 2.414 0.48 2.414 l 0 25.07 -33.952 0 0 -25.07 c 0 0 -0.187 -1.729 0.48 -2.414 z"
     style="fill:#ecd14c;fill-opacity:1;color:#bebebe"
     id="path2" />
  <path
     style="fill:#808080;opacity:1;fill-opacity:1;stroke:none"
     d="M 32 7 A 12 12 0 0 0 20 19 L 20 27 L 26 27 L 26 19 A 6 6 0 0 1 32 13 A 6 6 0 0 1 37.806641 17.503906 L 43.894531 17.503906 A 12 12 0 0 0 32 7 z M 38 26.951172 L 38 27 L 44 27 L 44 26.951172 L 38 26.951172 z "
     id="path4" />
</svg>
